<svg xmlns="http://www.w3.org/2000/svg" style="fill: transparent;" height="5333.333" width="5333.333" xml:space="preserve"><path d="M0 0h40000v40000H0z" transform="matrix(.13333 0 0 -.13333 0 5333.333)"/>
    <path style="fill:#2cafe2;fill-opacity:1;fill-rule:nonzero;stroke:none"
          d="M20417.5 8709.2c-9561.2 0-17312.16 1440.2-17312.16 3216.7 0 529.6 688.46 1029.2 1908.61 1469.8 176.88-21.7 377.62-32.9 603.5-32.9 112.17 0 230.69 2.8 355.35 8.3 2115.36-1464 4541.8-2577.8 7249.6-3377.3 0 0 376.1-376 623.8-761.4 113.6-176.7 316.8-263.7 540.8-263.7 264.6 0 558.1 121.5 766.9 360 103.3 118 349.7 152 704 152 234.6 0 516.5-15 835.4-30.3 338-16.4 717.4-33.2 1126.2-33.2 730 0 1553.6 53.7 2400.7 259.5 181.9-349.2 826.2-386.4 1028.7-389.3 219.8-3 491.5-4.1 756.2-4.1 392.9 0 770.2 2.3 937.8 3.4 102.2-237.8 249.2-415 440-530.5-963.8-30.9-1954.1-47-2965.4-47m4359 102.8c114.9 69.4 222 154.6 317.8 254.4 654.7 682.4 1465.9 1021.8 2455.3 1021.8 550.4 0 1156.1-105.1 1820.3-314.7 4.4-1.3 8.9-2.6 13.5-3.7 737.4-175.1 1428.8-262.7 2069.5-262.7 164.3 0 325.3 5.8 482.9 17.3-2018.4-334.4-4461-582.3-7159.3-712.4m8356.7 931c1.4.4 2.8.8 4.2 1.3 331.5 102.2 635.5 236 908.5 399 215.7-18.6 437.4-29.4 660.1-34.2-476.5-129.1-1002.6-251.5-1572.8-366.1m4133.8 1441.1c-47.7 69.6-110.3 130.5-186.1 178.5-498.4 315.7-1237.9 453.1-1622.7 506.1 172.4 532.1 185.3 1094.4 46.3 1636.1 1416.5-466.4 2225.2-1005.1 2225.2-1578.9 0-255.3-160-503.6-462.7-741.8m-16520.2 2913.6c-14.9 15.7-30.4 32-46.5 49.1 273.8 211.9 539.7 446.1 797.4 702.7l2 1.9c74.5 76.3 147.3 153.2 218.3 230.5-162.5-275.8-337.3-548.4-521.9-803.1-24.6-33.8-48.4-68.1-71.5-102.7-122.5-28.3-246-54-370.3-77.1-2.5-.4-5-.9-7.5-1.3"
          transform="matrix(.13333 0 0 -.13333 0 5333.333)"/>
    <path style="fill:#e0dae5;fill-opacity:1;fill-rule:nonzero;stroke:none"
          d="M35190.7 11705.5s1134.1-92.1 1787.1-505.6c350.9-222.2 224.4-762-188.9-803.4-686.9-68.8-1814.1-147.4-2790.4-55.5l1192.2 1364.5"
          transform="matrix(.13333 0 0 -.13333 0 5333.333)"/>
    <path style="fill:#fff;fill-opacity:1;fill-rule:nonzero;stroke:none"
          d="M20983 11370.9c203.1-642.6-71.6-897.5-263.8-1147.5-192.1-249.9-301.7-496.1-301.7-496.1-1392.4-376.6-2735.9-324.8-3724.2-276.9-800.5 38.5-1367.6 74.3-1539.4-121.7-385.4-440.5-1059.9-481.7-1307.7-96.3-247.7 385.4-623.8 761.4-623.8 761.4-2707.8 799.5-5134.24 1913.3-7249.6 3377.3-1484.38-66-2072.97 265.4-1998.08 890.4 41.3 346.8 322.64 611.6 667.32 667.2 1177.69 190 1826.29 1103.4 1826.29 1103.4 487.27 790.1 893.05 1421.1 1208.54 1897.9v.6h.55c503.79 762 775.78 1130.9 775.78 1130.9s3.3 0 9.36-.6c216.93-7.1 4123.94-146.4 5040.64-313.8 943.2-172.9 3443.9-540.7 5335.2-2596.6 1891.3-2055.9 2254.7-2412.1 2254.7-2412.1s-257.2-538.5-266-1306.6c-3.8-321 35.8-682.1 155.9-1060.9"
          transform="matrix(.13333 0 0 -.13333 0 5333.333)"/>
    <path style="fill:#b2b2d4;fill-opacity:1;fill-rule:nonzero;stroke:none"
          d="M17819.5 9417.2c-408.8 0-788.2 16.8-1126.2 33.2 68.1 20.6 155.5 31.6 264.9 31.6 45.3 0 94.4-1.9 147.5-5.7 76-5.7 150.2-8.4 222.5-8.4 860 0 1448.8 383.9 1641.2 767.8 192.3 383.8-11.9 767.8-737.8 767.8-20.7 0-41.7-.4-63.3-1-113.1-3.3-233.1-5.3-358.1-5.3-1639.8 0-4210.7 335.3-5279.3 2243.5-1150.2 2053.7-3860.22 1249.8-3837.09 3131.7 17.07 1400.1-554.59 1579-848.21 1579-94.58 0-160.26-18.6-168.18-20.8 303.37 458.8 522.67 775.1 649.16 954.2 547.31-1072.2 1270.25-2065.6 1964.32-2656.1 27.5-24.5 61.5-40.8 98-46.6 1599.9-255.6 2828.6-1291.2 3755.6-3165.5 4.2-11.2 9.5-22.1 16-32.7.1 0 .1-.1.1-.1 5.2-10.6 11.4-20.6 18.3-29.9 197.1-323.7 377.3-661.1 544.1-1006.8 13.9-28.7 43.2-47 74.8-47 7.1 0 14.4 1 21.7 2.9 44.2 12 70.3 57.6 58.3 101.8-73.2 269.7-154.5 538.3-246.3 804.7 575.5-110.5 1133.6-165.7 1674.3-165.7 393.7 0 778 29.3 1152.8 87.8 89.3-235.9 282.9-464.8 608.2-652.9.1-.1.3-.2.5-.3.6-.4 1.2-.7 1.8-1.1 284.5-164 669.5-297 1173.1-376.5 115.2-18.1 236.5-33.5 364.3-45.8H19606.8l1067.2 42.6c15.7-63.5 33.7-126.7 53.8-189.3 32.7-101.9 70.5-200.9 112.4-294.7 18.6-75.6 106.9-526.3-336.2-853.5-340.5-251.5-357-475.1-310.9-618.5 7.3-22.7 16.4-44.3 27.1-64.9-847.1-205.8-1670.7-259.5-2400.7-259.5m2782.9 4655c32.7 24.6 65.4 49.4 97.9 74.6 16.1-17.1 31.6-33.4 46.5-49.1-48-8.9-96.1-17.4-144.4-25.5"
          transform="matrix(.13333 0 0 -.13333 0 5333.333)"/>
    <path style="fill:#3185ff;fill-opacity:1;fill-rule:nonzero;stroke:none"
          d="M34505.4 15560.8c-3.3-216.9-11-438.8-23.7-666.7-49-664-157.4-1236.1-323.7-1718.4-92-268.7-202.6-509.3-330.4-723.5-144.8-242.8-311.6-450.4-501-624.4-161.9-149.2-339.7-273-533.5-372.7-811.6-418.5-1899-410.7-3236.9-16-2959.4 1306-5134.8 985-6440.8-1139.7l-308.9 290.2-813.2 762.5s90.3 860.1 201 1676.6c94.7 695.4 204.2 1358.3 285.1 1434.3 176.2 165.1 1662.8 3331 1662.8 3331s-357.8 2808-357.8 2890.6c0 43-36.4 454.8-71.6 839.1-31.4 351.8-62.2 681.1-62.2 681.1 50.6 36.3 102.9 71.6 156.3 106.3 225.2 148.6 475.2 288.5 745 416.2 237.3 112.9 490 216.4 754.8 308.3h.6c1398.5 489 3132.3 666.2 4716.3 224.7 290.2-81 575.9-182.8 853.4-307.8 233.5-104.6 462-225.2 682.2-363.9 235.7-147.6 463.1-315 679.4-503.8 1013.7-883.2 1792.2-2228.8 2111-4179 45.1-271.4 80.4-555 106.3-850.7 41.3-466.9 58.9-964.6 49.5-1494.3"
          transform="matrix(.13333 0 0 -.13333 0 5333.333)"/>
    <path style="fill:#a2c8ff;fill-opacity:1;fill-rule:nonzero;stroke:none"
          d="M34173.7 15113.5c1.5 411.4-13.1 803-42.7 1175.6 78.7 163.4 61 429 145.9 581.5 38-502.5 48.1-1031.2 29.8-1585.7-44.3-58.9-88.7-116.1-133-171.4m-498.4 3544.3c-401.6 1214.4-1022.1 2119.2-1770.9 2771.5-205.5 179.4-420.9 339.4-643.9 481.4 35.6 8.3 70.4 13.3 103.8 13.3 191.3 0 428.3-164.1 611.6-164.2 40.9 0 79.1 8.2 113.5 28.2 38 21.9 66.2 54.3 87.8 93.7 857.3-773.3 1462.7-1839.8 1805.6-3170.9-19.8 5-40.4 7.2-61.7 7.2-75.2 0-159.4-27.6-245.8-60.2m-9615.2 3585.5c129.4 78.7 267.6 155.4 414.1 229.4-87.4-136.9-240-228.1-414.1-229.4m6386.3 96.1c-247.1 105.9-500.3 193.9-757 265.5-626.6 174.6-1276.8 252.5-1920.2 252.5-826.1 0-1641-128.2-2381.8-344.5 68.7 67.2 118.6 140.1 118.6 226 0 52.1-18.3 99.4-47.9 143.5 795 269.1 1712.8 444.6 2656.5 444.6 599.7 0 1209.9-70.9 1805.5-233.8-3.6-16-5.5-32.4-5.5-49.3 0-234 370.6-371.1 480.1-560 23.7-41 39.6-90.6 51.7-144.5m755.7 236.1c-49.6 17.2-95.6 42-136.6 73 45.7-23.6 91.3-48 136.6-73"
          transform="matrix(.13333 0 0 -.13333 0 5333.333)"/>
    <path style="fill:#286de5;fill-opacity:1;fill-rule:nonzero;stroke:none"
          d="M28442.6 18106c-183.3 0-420.3 164.2-611.6 164.2s-428.3-164.2-611.6-164.2c-40.9 0-79.1 8.2-113.5 28.2-194.9 112.8-132.2 501-244.5 695.9-109.6 188.9-480.1 326-480.1 560s370.5 370.5 480.1 559.4c112.3 194.9 49.6 583.6 244.5 695.9 34.4 20 72.6 28.2 113.5 28.2 183.3 0 420.3-164.2 611.6-164.2s428.3 164.2 611.6 164.2c40.8 0 79.1-8.2 113.5-28.2 194.9-112.3 132.2-501 244.5-695.9 109.5-188.9 480.1-325.4 480.1-559.4s-370.6-371.1-480.1-560c-112.3-194.9-49.6-583.1-244.5-695.9-34.4-20-72.6-28.2-113.5-28.2m-611.6 1779.6c-273.6 0-495.5-221.9-495.5-495.5 0-273.7 221.9-495.6 495.5-495.6s495.5 221.9 495.5 495.6c0 273.6-221.9 495.5-495.5 495.5M32633.9 11596.8c-65.8 52.1-133.8 104.5-186.1 161.5 120.2 41.1 235.2 90 345.3 146.8 193.8 99.6 371.6 223.5 533.5 372.7 189.4 174 356.2 381.6 501 624.4 37.3 62.5 73.1 127.2 107.4 194.3 4.5 1.2 8.9 2.4 13.3 3.7-100.3-262.6-221.7-495.7-364.4-699.5-124.3-62.1-218.9-174.9-256.5-311.3-200.1-206.2-431-370.1-693.5-492.6M33921.1 16150.4c-183.3 0-420.3 164.2-611.6 164.2s-428.2-164.2-611.5-164.2c-40.9 0-79.1 8.2-113.6 28.2-194.9 112.9-132.1 501-244.4 695.9-109.6 188.9-480.2 326-480.2 560s370.6 370.5 480.2 559.4c112.3 194.9 49.5 583.6 244.4 695.9 34.5 20 72.7 28.2 113.6 28.2 183.3 0 420.2-164.2 611.5-164.2 112.9 0 241.6 57.2 365.8 104 142.1-429.6 256.8-897.8 340.1-1407.4 45.1-271.5 80.4-555 106.3-850.7 3.2-36.7 6.3-73.6 9.3-110.6-22.6-47-53.2-85.5-96.3-110.5-34.5-20-72.7-28.2-113.6-28.2m-611.6 1779.6c-273.6 0-495.5-221.9-495.5-495.5 0-273.7 221.9-495.5 495.5-495.5 273.7 0 495.6 221.8 495.6 495.5 0 273.6-221.9 495.5-495.6 495.5"
          transform="matrix(.13333 0 0 -.13333 0 5333.333)"/>
    <path style="fill:#85a4e5;fill-opacity:1;fill-rule:nonzero;stroke:none"
          d="M34131 16289.1c-3 37-6.1 73.9-9.3 110.6-25.9 295.7-61.2 579.2-106.3 850.7-83.3 509.6-198 977.8-340.1 1407.4 86.4 32.6 170.6 60.2 245.8 60.2 21.3 0 41.9-2.2 61.7-7.2 145.8-566.2 244.1-1180.3 294.1-1840.2-84.9-152.5-67.2-418.1-145.9-581.5"
          transform="matrix(.13333 0 0 -.13333 0 5333.333)"/>
    <path style="fill:#286de5;fill-opacity:1;fill-rule:nonzero;stroke:none"
          d="M30287.7 13914.7c-670 309.1-1238.7 803.4-1641.2 1222.2 69.3-23.8 137.2-41.6 200.1-41.6 191.3 0 428.3 164.1 611.6 164.1 40.8 0 79.1-8.1 113.5-28.1 194.9-112.3 132.2-501 244.5-695.9 109.5-188.9 480.1-325.4 480.1-559.5 0-21.1-3-41.5-8.6-61.2M24844.2 13582.3c-241.1 0-439.4 63.8-602.3 164.9 181.8 73.4 310.1 251.6 310.1 459.6 0 273.7-221.9 495.6-495.5 495.6-160.8 0-303.6-76.6-394.2-195.2-43.9 112.1-75.6 218.6-98.1 308.4 130.3 174 247.8 352.2 353.9 532.7 47.7-13.4 94.3-22.1 138.4-22.1 191.3 0 428.2 164.1 611.5 164.1 40.9 0 79.2-8.1 113.6-28.1 194.9-112.4 132.1-501.1 244.5-696 109.5-188.8 480.1-325.4 480.1-559.4s-370.6-371.1-480.1-559.9c-10-17.3-18.6-36.1-26.1-56.1-53.9-5.7-105.7-8.5-155.8-8.5M30752.7 21759.8c-40.9 0-79.1 8.2-113.5 28.2-153.9 89.1-147.2 349.7-192.8 551.4 32.3-13.8 64.4-27.9 96.4-42.3 233.5-104.6 462-225.2 682.2-364 11.9-7.4 23.7-14.8 35.5-22.4-168.6-39-356.5-150.9-507.8-150.9"
          transform="matrix(.13333 0 0 -.13333 0 5333.333)"/>
    <path style="fill:#85a4e5;fill-opacity:1;fill-rule:nonzero;stroke:none"
          d="M31975.9 21759.8c-183.3.1-420.3 164.2-611.6 164.2-33.4 0-68.2-5-103.8-13.3-11.8 7.6-23.6 15-35.5 22.4-220.2 138.8-448.7 259.4-682.2 364-32 14.4-64.1 28.5-96.4 42.3-12.1 53.9-28 103.5-51.7 144.5-109.5 188.9-480.1 326-480.1 560 0 16.9 1.9 33.3 5.5 49.3 390.3-106.7 774.7-253.1 1145.4-444.7 41-31 87-55.8 136.6-73 9.5-5.3 18.9-10.4 28.4-15.8 343.7-192.4 659.3-418.7 946.7-678-21.6-39.4-49.8-71.8-87.8-93.7-34.4-20-72.6-28.2-113.5-28.2"
          transform="matrix(.13333 0 0 -.13333 0 5333.333)"/>
    <path style="fill:#286de5;fill-opacity:1;fill-rule:nonzero;stroke:none"
          d="M24667.9 21454.8c-64.4 0-135.5 20.3-208.9 46.6-98.5 214.8-209.1 388.9-326.4 529.6 28.1 13.8 56.5 27.4 85.1 40.9 237.3 112.9 490 216.4 754.8 308.3h.6c135.1 47.3 273.4 91.6 414.3 132.7-118.3-115.7-292.1-214.5-361.5-334-112.3-194.9-49.5-583.1-244.4-695.9-34.5-20-72.7-28.2-113.6-28.2"
          transform="matrix(.13333 0 0 -.13333 0 5333.333)"/>
    <path style="fill:#85a4e5;fill-opacity:1;fill-rule:nonzero;stroke:none"
          d="M24132.6 22031c-50 60-101.2 113.9-153.3 162.3 26.5 16.7 53.5 33.4 80.8 50 174.1 1.3 326.7 92.5 414.1 229.4 297.6 150.3 628.4 289.4 983.9 409.7 29.6-44.1 47.9-91.4 47.9-143.5 0-85.9-49.9-158.8-118.6-226-140.9-41.1-279.2-85.4-414.3-132.7h-.6c-264.8-91.9-517.5-195.4-754.8-308.3-28.6-13.5-57-27.1-85.1-40.9"
          transform="matrix(.13333 0 0 -.13333 0 5333.333)"/>
    <path style="fill:#8484a5;fill-opacity:1;fill-rule:nonzero;stroke:none"
          d="M23303.1 18100.7c-311-1028.5-945.9-2095-1941.3-3114.7-1887.5-1878.6-4216.4-2555.8-7028.3-1917.1-697.1 1422.7-1607.7 2451.2-2792.6 2974.2-349.1 154.8-722.9 265.4-1121.5 329.3l-.6.6c-937.1 795.6-1983.77 2417-2499.67 3967.5-118.92 357.3 102.41 740.5 472.96 809.9 884.25 165.7 1963.41 183.4 3159.81 112.3 63.3 1376 982.3 2369.8 2569.6 3065.2 274.2 1271.3 620 2460.5 1230 3343.1 275.3 399.2 823.2 495 1221.8 219.2 1413.3-977.3 2641.2-2427.6 3751.7-4177.3 2560.2-794 3742.9-3087.2 2978.1-5612.2"
          transform="matrix(.13333 0 0 -.13333 0 5333.333)"/>
    <path style="fill:#c8c8d6;fill-opacity:1;fill-rule:nonzero;stroke:none"
          d="M8149.96 20775c63.91 98.5 161.82 164.3 277.65 186 529.38 99.2 1152.87 148.6 1887.39 148.6 307.8 0 635.3-8.7 983.4-26-7.3-66.2-12.7-133.4-15.7-201.3-427.9 25.4-841 39.4-1235.3 39.4-697.02 0-1335.96-43.9-1897.44-146.7M23258.5 18713.5l-9.3 127.7c162.2 2060.8-1018.6 3817-3193.4 4491.2-1110.6 1749.8-2338.4 3200-3751.7 4177.3-153.3 106.1-328.8 157.2-502.3 157.2-78.7 0-156.9-10.5-232.6-31.2 99.1 108.1 230.3 180.8 377.5 207.7 41.7 7.7 83.6 11.4 125.2 11.4 138.9 0 274.7-42.1 391.8-123.1 1298-897.6 2507.9-2245.9 3698.6-4122.1 24.5-38.7 62-67.3 105.6-80.9 1523.9-472.4 2598.1-1533.1 2947.3-2910.2 154.8-610.6 166.6-1253 43.3-1905"
          transform="matrix(.13333 0 0 -.13333 0 5333.333)"/>
    <path style="fill:#fff;fill-opacity:1;fill-rule:nonzero;stroke:none"
          d="m23514 15075.8-.5-.6c-33.1-48.4-67.8-96.9-103.5-144.2-495-661.3-820.4-1232.3-999.9-1749.8-338.6-976.8-154.7-1760.2 396.4-2591.6 56.2-84.8 115.6-170.2 179.5-256.1-151.4-385.4-47.9-853.9-47.9-853.9s-949.8-116.2-1741.5-47.9c-791.8 69.4-1245.5 447.6-660.7 770.8 584.7 323.8 496.6 1032.9 496.6 1032.9-320.4 824.8-344.7 1624.2 6.6 2391.2 82.6 181.7 186.7 361.2 312.7 539l1453 2749.1c1525.2 3938.4-274.1 5414-274.1 5414s567.1 228.5 1119.9-123.9c229-145.4 455.8-391.5 638.6-795.1 609-1343.9 644.2-4299-775.2-6333.9"
          transform="matrix(.13333 0 0 -.13333 0 5333.333)"/>
    <path style="fill:#8484a5;fill-opacity:1;fill-rule:nonzero;stroke:none"
          d="M29427.9 9957.5c-4.4 1.1-8.3 2.7-12.7 3.8-270.9 84.8-530.7 152-781.3 202.1-379.3 77.1-736.7 114.5-1073.1 115.1-101.8 0-202-3.3-300.6-9.9h-.5c-95.8-6.6-190-16.5-282.5-29.8-806.6-112.8-1475-469.1-2021.8-1038.9-291.8-303.4-712.4-460.3-1128.1-398.1-447.6 66.6-674.5 366.7-784.6 789-77.6 297.9-40.2 615 95.8 891.4 47.9 97.4 101.3 191.6 159.7 281.4 650.8 1003.1 1925.9 1526.2 3487.4 1421 769.2-51.2 1608.8-255.5 2477.7-629.8 602.3-259.4 1248.1-408.6 1903.9-421.3 624.9-12.1 1163.4 94.2 1614.9 320.5 975.1 488.4 1542.2 1538.9 1683.7 3174.1 6 89.8 11.5 178.4 15.9 266l27-18.2c2150.1-2239.2 406.9-6221.7-5080.8-4918.4"
          transform="matrix(.13333 0 0 -.13333 0 5333.333)"/>
    <path style="fill:#fff;fill-opacity:1;fill-rule:nonzero;stroke:none"
          d="M22804.7 16914.9c-1418 2883.4-3479.4 1194-5522.1 383.6-2610.5-1148-4072.2 3045.1-3779.3 6723.7-999-554.3-1743-1303-1925.6-2479.9 1094.9 75.3 1954.7-2210.3 2883.6-4789.1 190-527.6 145.4-1107.7-106.7-1608.6-250.6-497.8-447.4-1215.7-84.8-1947.7 3109.4-1061.8 5977.6-24.1 8534.9 3718"
          transform="matrix(.13333 0 0 -.13333 0 5333.333)"/>
    <path style="fill:#000070;fill-opacity:1;fill-rule:nonzero;stroke:none"
          d="M14723 11947.1c-171.9 356.4-358.2 704-562.5 1036.8-55.9 91.1-27.4 210.3 63.8 266.2 91.1 55.9 210.2 27.4 266.2-63.7 6.1-10 11.3-20.4 15.4-31l.6-1.6c145-378.8 266.5-762.7 371.3-1149 12-44.2-14.1-89.8-58.3-101.8-39.2-10.6-79.5 8.8-96.5 44.1"
          transform="matrix(.13333 0 0 -.13333 0 5333.333)"/>
    <path style="fill:#5c5c95;fill-opacity:1;fill-rule:nonzero;stroke:none"
          d="M14073.5 13940.7c-705.5 1140.5-1574.3 1922.5-2596.3 2337.1-73.3 275.6-115.2 451.9-115.2 451.9v.1c.1-.1.1-.1.2-.3-.1.9-.1 1.6-.2 2.5v2658.2c461-2147.3 1600.9-3509.1 3016.3-4197-7.7-16.3-15.6-32.5-23.7-48.6-164.2-326.2-305.3-746.8-281.1-1203.9m8623.9 3181.4c-79.1 145.1-160.2 277.2-242.9 396.7 306 403.1 574.2 845 794.7 1322.4-10-125.2-24.7-250.9-44.5-377.9-63.8-264.4-149.4-529.9-256.4-795.1-5.4-9.4-10.1-19.5-14-30-.6-1.7-6.6-17.9-17.7-47-65.6-156.6-138.8-313.1-219.2-469.1"
          transform="matrix(.13333 0 0 -.13333 0 5333.333)"/>
    <path style="fill:#8c8cb7;fill-opacity:1;fill-rule:nonzero;stroke:none"
          d="M23204.7 18463.3c19.8 127 34.5 252.7 44.3 377.6l.2.3 9.3-127.7c-15.8-83.3-33.7-166.5-53.8-250.2"
          transform="matrix(.13333 0 0 -.13333 0 5333.333)"/>
    <path style="fill:#b2b2d4;fill-opacity:1;fill-rule:nonzero;stroke:none"
          d="M16296.2 13030.8c-588.4 0-1199.1 68.7-1831 206.2-124.3 248-255 482.6-391.7 703.7-24.2 457.1 116.9 877.7 281.1 1203.9 8.1 16.1 16 32.3 23.7 48.6 755.7-367.2 1589.9-542.4 2441.2-542.4 2072.1 0 4245.4 1037.3 5635 2868 82.7-119.5 163.8-251.6 242.9-396.7-352.8-684.2-846.6-1359.4-1472.4-2000.4-462.3-459.9-952.3-844.3-1469-1152.8-162.3-12.7-325.8-21.8-490.6-27.3-2.2-.1-4.5-.2-6.7-.2h-.4c-127.3-4.2-255.3-6.2-384.1-6.2-170.2 0-341.6 3.5-514.2 10.5-12.8.5-25.6.7-38.3.7-118.1 0-232.5-21.9-338.4-62.3-245.9-93.6-445.2-286.6-534.2-534.7-24.7-68.5-40.8-141.2-47.2-217.2-.5-5.6-.9-11.2-1.3-16.7-358.9-56.5-727-84.7-1104.4-84.7"
          transform="matrix(.13333 0 0 -.13333 0 5333.333)"/>
    <path style="fill:#ef7fd2;fill-opacity:1;fill-rule:nonzero;stroke:none"
          d="M11362.2 19831.2s-213.9-1119.5 0-3101.7c-1957.35 2129-2948.45 3487.1 0 3101.7"
          transform="matrix(.13333 0 0 -.13333 0 5333.333)"/>
    <path style="fill:#5c5c95;fill-opacity:1;fill-rule:nonzero;stroke:none"
          d="M9672.76 18841.2c-351.64 665.8-190.75 1055.3 828.74 1055.3 131.4 0 277.1-6.4 437.7-19.6-160.4 13.1-305.9 19.6-437.2 19.6-1019.49 0-1180.44-389.5-828.88-1055l-.36-.3m1606.64 121.7c-.1 0-.2 0-.3.1 9.6 213.1 23.7 388.6 37.6 524.8-13.8-136.2-27.8-311.7-37.3-524.9"
          transform="matrix(.13333 0 0 -.13333 0 5333.333)"/>
    <path style="fill:#a759b4;fill-opacity:1;fill-rule:nonzero;stroke:none"
          d="M9673.12 18841.5c-351.56 665.5-190.61 1055 828.88 1055 131.3 0 276.8-6.5 437.2-19.6 130.9-10.7 271.6-25.9 422.8-45.7 0 0-22.3-117.3-45.3-343.4-13.9-136.2-28-311.7-37.6-524.8-300.9 36.9-559 54.8-777.6 54.8-403.6 0-672.58-61.1-828.38-176.3"
          transform="matrix(.13333 0 0 -.13333 0 5333.333)"/>
    <path style="fill:#ef7fd2;fill-opacity:1;fill-rule:nonzero;stroke:none"
          d="M15709.9 24603c105.5 2309.7 671.1 2421.7 1770.2 1064.4 328-405 790-804.7 1192.9-1486.5-924.8 332.8-1908.2 486.6-2963.1 422.1"
          transform="matrix(.13333 0 0 -.13333 0 5333.333)"/>
    <path style="fill:#5c5c95;fill-opacity:1;fill-rule:nonzero;stroke:none"
          d="M18673.2 24180.9h-.2c-214.9 363.6-446.6 647-665.7 893.7 219.2-246.8 451-530.2 665.9-893.7m-725.1 220.5c-163.6 40.7-329.2 75.9-496.6 105.4l-.2.2c167.5-29.6 333.1-64.8 496.8-105.6m-449.3 1243.1c-3.9 4.8-7.8 9.5-11.6 14.2 3.8-4.7 7.7-9.4 11.6-14.2m-16.3 19.9-2.4 3 2.4-3m-2.4 3c-418.6 516.9-759.8 820.7-1027.6 871.2 267.8-50.4 609-354.2 1027.6-871.2"
          transform="matrix(.13333 0 0 -.13333 0 5333.333)"/>
    <path style="fill:#a759b4;fill-opacity:1;fill-rule:nonzero;stroke:none"
          d="M18673 24180.9c-237.6 85.6-479.1 159.3-724.9 220.5-163.7 40.8-329.3 76-496.8 105.6-159 175-308.7 333.5-437.5 492.6-460 567.6-826 878.6-1104.6 878.6-16.3 0-32.2-1.1-47.8-3.2 112.8 457.4 283.1 671.1 513.9 671.1 25 0 50.7-2.5 77.2-7.5 267.8-50.5 609-354.3 1027.6-871.2l2.4-3c1.6-1.8 3.2-3.8 4.7-5.7 3.8-4.7 7.7-9.4 11.6-14.2 149.2-181.4 324.4-362.7 508.5-569.9 219.1-246.7 450.8-530.1 665.7-893.7"
          transform="matrix(.13333 0 0 -.13333 0 5333.333)"/>
    <path style="fill:#000070;fill-opacity:1;fill-rule:nonzero;stroke:none"
          d="M8287.82 16388.5c695.46 170.7 1426.49 254.3 2162.08 174.2l.6-.1c105.9-11.5 182.5-106.8 170.9-212.7-11.5-106-106.8-182.5-212.7-171-6.7.7-13.5 1.9-19.9 3.2-667.71 144.3-1374.4 140.7-2069.73 44.2-45.21-6.3-87.06 25.2-93.41 70.4-5.95 42.2 21.7 81.7 62.16 91.8"
          transform="matrix(.13333 0 0 -.13333 0 5333.333)"/>
    <path style="fill:#000070;fill-opacity:1;fill-rule:nonzero;stroke:none"
          d="M21361.8 14986h.5-.5m-6896.6-1749c2649.1-576.5 4923.2 57.4 6759.8 1884.7 1707.2 1748.7 2432.5 3752.1 1990.2 5496.8-349.2 1377.1-1423.4 2437.8-2947.3 2910.2-43.6 13.6-81.1 42.2-105.6 80.9-1190.7 1876.2-2400.6 3224.5-3698.6 4122.1-152.1 105.2-335.8 144.9-517 111.7-178.7-32.7-333.7-132.7-436.5-281.8-632.8-915.5-961.9-2168.9-1200.3-3274.4-13.1-60.5-54.4-111-111.1-135.8-1593.9-698.3-2396.8-1646.1-2454.4-2897.5-2.3-51.5-25.2-99.9-63.6-134.4-38.4-34.5-89.1-51.5-140.3-49.1-1292.6 76.8-2310.84 40.9-3112.89-109.4-122.18-22.9-224.41-94.8-287.84-202.5-63.58-108-77.35-238.2-37.75-357.1 486.92-1463.5 1470.02-3036 2402.18-3847.7 1668.1-285.7 3000.1-1401 3961-3316.7m1840.6-593.2c-646.8 0-1318.5 79-2015 237.1-56.7 13-104.7 50.9-130.3 103.2-928.8 1894.8-2162.5 2940.9-3771.6 3198-36.5 5.8-70.5 22.1-98 46.6-991.18 843.3-2041.32 2508.3-2554.6 4051-74.76 224.6-48.73 470.4 71.34 674.3 119.04 202.2 319.13 342.8 549.02 385.8 793.21 148.7 1781.84 190.1 3017.34 125.9 133.6 1275.9 1000.3 2283.7 2579.9 2998.5 244.9 1118.7 586.7 2372.6 1239.1 3316.4 161.2 233.7 404.3 390.7 684.4 441.9 282.7 51.7 568.8-10 805.6-173.9 1327.4-917.8 2560-2283.4 3767-4173.2 1619-523.6 2761.1-1672.8 3138.7-3162.1 476.2-1878.2-285.2-4014.8-2089-5861.9l-2-1.9c-1474.5-1467.7-3215-2205.7-5191.9-2205.7"
          transform="matrix(.13333 0 0 -.13333 0 5333.333)"/>
    <path style="fill:#8e8eb2;fill-opacity:1;fill-rule:nonzero;stroke:none"
          d="M21251.6 14206.6c-915.1-226.8-1883.3-301.5-2891.6-260.9-483.5 19.4-917.2-331.4-957.9-813.6-51.9-615.5 514.3-1314.4 2204.7-1477.1l1264.3 50.5s-775.7 937 435.6 2501.1h-55.1"
          transform="matrix(.13333 0 0 -.13333 0 5333.333)"/>
    <path style="fill:#7c7cb6;fill-opacity:1;fill-rule:nonzero;stroke:none"
          d="M19606.5 11655c-127.8 12.3-249.1 27.7-364.3 45.8 115.3-18.2 236.6-33.5 364.6-45.8h-.3m-1537.4 422.3c-.6.4-1.2.7-1.8 1.1.6-.4 1.2-.7 1.8-1.1m-2.3 1.4c-325.3 188.1-518.9 417-608.2 652.9h.1c89.3-235.9 282.8-464.8 608.1-652.9M17401.9 13132.2c6.4 76 22.5 148.7 47.2 217.2-24.6-68.5-40.8-141.2-47.2-217.2"
          transform="matrix(.13333 0 0 -.13333 0 5333.333)"/>
    <path style="fill:#000070;fill-opacity:1;fill-rule:nonzero;stroke:none"
          d="M17458.6 12731.6c-16.2 42.5-28.9 85.3-38.4 128.1.1.1.1.1.1.2a924.3 924.3 0 0 1 38.4-128.3h-.1"
          transform="matrix(.13333 0 0 -.13333 0 5333.333)"/>
    <path style="fill:#63639e;fill-opacity:1;fill-rule:nonzero;stroke:none"
          d="M19606.8 11655c-128 12.3-249.3 27.6-364.6 45.8-503.6 79.5-888.6 212.5-1173.1 376.5-.6.4-1.2.7-1.8 1.1-.2.1-.4.2-.5.3-325.3 188.1-518.8 417-608.1 652.9a924.3 924.3 0 0 0-38.4 128.3c40.4 178.9 136.4 334.7 267.5 453.3 172.3-496.4 804.9-931.7 2131.1-931.7 62.7 0 126.9 1 192.8 3l575.4 96.7c-5.4-263.4 23.1-526.8 86.8-783.5l-1067.2-42.7"
          transform="matrix(.13333 0 0 -.13333 0 5333.333)"/>
    <path style="fill:#dcdcec;fill-opacity:1;fill-rule:nonzero;stroke:none"
          d="M17400.6 13115.5c.4 5.5.8 11.1 1.3 16.7-.4-5.6-.9-11.2-1.2-16.7h-.1m48.5 233.9c89 248.1 288.3 441.1 534.2 534.7-203.3-77.5-374.8-223-478.4-411.4-21.7-39.3-40.4-80.5-55.8-123.3m1809.2 592h.4-.4m7.1.2c164.8 5.5 328.3 14.6 490.6 27.3h-.2c-162.2-12.8-325.6-21.8-490.4-27.3"
          transform="matrix(.13333 0 0 -.13333 0 5333.333)"/>
    <path style="fill:#a0dbf2;fill-opacity:1;fill-rule:nonzero;stroke:none"
          d="M20746.8 14097.7c2.5.4 5 .9 7.5 1.3-2.5-.4-5-.9-7.5-1.3"
          transform="matrix(.13333 0 0 -.13333 0 5333.333)"/>
    <path style="fill:#dcdcec;fill-opacity:1;fill-rule:nonzero;stroke:none"
          d="M20602.3 14072.2h.1c48.3 8.1 96.4 16.6 144.4 25.5-48-8.9-96.2-17.4-144.5-25.5"
          transform="matrix(.13333 0 0 -.13333 0 5333.333)"/>
    <path style="fill:#8c8cbf;fill-opacity:1;fill-rule:nonzero;stroke:none"
          d="M17420.1 12859.1c-19.1 85.7-25.1 171.9-19.5 256.4h.1c-5.6-84.4.5-170.2 19.5-255.8 0-.2-.1-.4-.1-.6m2335.7 1109.8h.2c286.3 22.6 568.5 56.7 846.4 103.3h-.1c-277.9-46.7-560.1-80.8-846.5-103.3"
          transform="matrix(.13333 0 0 -.13333 0 5333.333)"/>
    <path style="fill:#ccccdc;fill-opacity:1;fill-rule:nonzero;stroke:none"
          d="M17687.8 13313.2c-29.5 85.2-45.5 172.1-49.1 258.9-1.1 28.1-1.1 56.2 1.1 83.7-52.5-54.9-98-116.3-134.9-183.1 103.6 188.4 275.1 333.9 478.4 411.4 105.7 40.2 219.9 62.1 337.6 62.1 13 0 26-.3 39.1-.8 171.4-6.8 341.8-10.3 510.9-10.3 129.8 0 259 2 387.4 6.3h.4c2.3 0 4.5.1 6.7.2 164.8 5.5 328.2 14.5 490.4 27.3 286.4 22.5 568.6 56.6 846.5 103.3 48.3 8.1 96.5 16.6 144.5 25.5 2.5.4 5 .9 7.5 1.3 124.3 23.1 247.7 48.7 370.2 77-95-142.4-177.8-290.8-248.1-443.7-644-128.9-1312.8-187.2-2001.7-187.2-170.4 0-341.9 3.5-514.7 10.5-12.7.5-25.4.7-37.9.7-240.4 0-466.2-90.9-634.3-243.1"
          transform="matrix(.13333 0 0 -.13333 0 5333.333)"/>
    <path style="fill:#c4c4de;fill-opacity:1;fill-rule:nonzero;stroke:none"
          d="M17400.7 13115.5c.3 5.5.8 11.1 1.2 16.7 6.4 76 22.6 148.7 47.2 217.2 15.4 42.8 34.1 84 55.8 123.3-56.2-102.2-92.4-217.1-102.8-340.6-.5-5.5-.9-11.1-1.2-16.6h-.2"
          transform="matrix(.13333 0 0 -.13333 0 5333.333)"/>
    <path style="fill:#8c8cbf;fill-opacity:1;fill-rule:nonzero;stroke:none"
          d="M17420.2 12859.7c-19 85.6-25.1 171.4-19.5 255.8h.2c-5.6-84.3.4-170 19.4-255.6 0-.1 0-.1-.1-.2"
          transform="matrix(.13333 0 0 -.13333 0 5333.333)"/>
    <path style="fill:#b9b9d3;fill-opacity:1;fill-rule:nonzero;stroke:none"
          d="M17420.3 12859.9c-19 85.6-25 171.3-19.4 255.6.3 5.5.7 11.1 1.2 16.6 10.4 123.5 46.6 238.4 102.8 340.6 36.9 66.8 82.4 128.2 134.9 183.1-2.2-27.5-2.2-55.6-1.1-83.7 3.6-86.8 19.6-173.7 49.1-258.9-131.1-118.6-227.1-274.4-267.5-453.3"
          transform="matrix(.13333 0 0 -.13333 0 5333.333)"/>
    <path style="fill:#000070;fill-opacity:1;fill-rule:nonzero;stroke:none"
          d="M21298 14019.5c-598.3-147.7-1209.9-230.2-1821.7-261.8-305.9-15.3-612-18.5-917.5-11.2l-114.5 3.6-57.2 1.9c-19.3.6-39.1 1.4-52.5.8-30-.1-60 .4-89.8-4-30-1.6-59.3-8.4-88.7-14.1-117.3-25.2-227.2-81.9-319-157.3-88.9-78.7-161.1-176.1-198.3-285.9-39.5-107.9-53-227.3-38.9-345.6 13.4-118 58.3-234.1 127.3-340.6 32-54.9 77.2-102.9 119.1-153.3l72.9-68.9c12.4-11.4 23.9-23.5 37-34.3l40.8-31c216.3-167.5 479.4-292.9 756.2-382.2 277.4-89.9 567.6-151 861.5-198.4l1.8-.3c45-7.3 75.6-49.7 68.4-94.8-6.8-42-44.5-71.4-86-69.4-304.6 16.4-611 49.3-913.9 120.9-301.7 72.6-604.9 178.9-877.9 364l-51.3 34.2c-16.8 12.1-32.6 26-48.9 39-32.2 26.6-64.9 52.6-96.6 80.2-59.5 60.6-121.2 119.5-171.5 191.4-104.2 138.6-184.2 304.6-217.4 484.5-6 45.1-13.9 90.5-15.9 136-.1 45.7-1.2 91.5 2.1 137.3 6.2 45.7 9.3 92.1 22.3 136.8l17 67.4 23.2 65.5c13.9 44.3 37.9 84.4 57.3 126.2 24.5 39 46 80.2 74.7 116.1 52.6 75.7 118 140.3 186.4 200.3 140.4 115.2 306 199.8 483.2 238.3 44.3 9 88.7 18.2 133.9 21.4 45 6 90.3 6.1 135.6 6 24.3.3 42-.5 60.4-1.1l55.6-1.8 111.1-3.5c296.5-7 592.8-3.9 888.2 10.8 590.6 30.5 1177.6 110 1748.8 251l.3.1c103.3 25.5 207.8-37.6 233.3-140.9 25.5-103.4-37.6-207.8-140.9-233.3M10504.3 19730.8c-582.5 0-757.89-131.2-808.04-227.8-204.2-393.5 736.94-1504.5 1455.44-2298.4-102.4 1284.6-24.2 2136.5 21.5 2483.3-267.7 30.2-488 42.9-668.9 42.9zm858-3166.5c-45.2 0-89.7 18.6-121.7 53.4-1447.27 1574.2-2128.81 2476.2-1837.55 3037.5 201.22 387.7 811.95 492.5 1980.55 339.8 45.1-5.9 85.8-30.2 112.5-67 26.6-36.8 36.9-83 28.4-127.7-2.1-11-206.2-1123.8 1.9-3053 7.7-70.9-31-138.8-96-168.2-21.9-9.9-45.1-14.8-68.1-14.8M16173 24782.4c715.3 0 1419.3-100.1 2102.8-298.8-197.6 270.7-400.4 492.6-586 695.6-120.9 132.2-235 257.1-338.1 384.3-638.9 789-920.7 845.3-1031.7 809-131.9-43.4-358.5-311.8-435.5-1595.6 96.4 3.7 192.6 5.5 288.5 5.5zm2500-766.7c-18.7 0-37.6 3.1-55.9 9.7-929.5 334.6-1904.3 473.6-2897 412.7-46.6-2.7-92.6 14.3-126 47.2-33.4 32.9-51.3 78.4-49.1 125.2 60.2 1320 261.2 1940.8 671.9 2075.8 355.3 116.9 784.5-165.3 1391.6-914.9 96.7-119.5 207.7-240.8 325.1-369.3 277.8-303.9 592.7-648.3 881.7-1137.2 35.4-60 29.4-135.7-15-189.4-32-38.6-79-59.8-127.3-59.8"
          transform="matrix(.13333 0 0 -.13333 0 5333.333)"/>
    <path style="fill:#000070;fill-opacity:1;fill-rule:nonzero;stroke:none"
          d="M14387.4 8776c-25.6 0-51.1.9-76.5 2.8-272.3 20.1-494.9 144.1-626.8 349.4-191.6 297.9-469.4 596.1-564.6 695.1-2718.9 807.6-5141.79 1935.3-7203.12 3352.7-993.36-37.4-1625.59 105.1-1931.2 434.5-166.07 178.9-233.94 405.7-201.81 673.9 50.15 420.8 390.58 764 827.93 834.6 1039.89 167.7 1648.44 955.7 1697.02 1020.8 1253.52 2034.1 1982.57 3026.3 1989.8 3036.1 63.18 85.6 183.74 103.8 269.48 40.6 85.64-63.1 103.86-183.7 40.67-269.4-7.13-9.7-729.54-993.2-1975.88-3016.1-2.19-3.5-4.49-7-6.93-10.5-28.42-39.9-709.62-981.5-1952.78-1182-268.36-43.3-476.71-248.9-506.6-499.8-18.6-155.1 13.72-271.3 101.62-366.1 156.29-168.4 577-358.9 1696.58-308.9 42.28 1.4 83.59-10.1 118.21-34.1 2051.27-1419.7 4471.81-2547.1 7194.51-3350.9 30.9-9.2 59-25.8 81.7-48.6 16-15.9 393.6-395.3 649.6-793.5 87.5-136.1 244.9-167.1 331-173.5 240.6-17.8 496.2 94.4 669.6 292.5 226.3 258.5 743.6 233.4 1600.8 191.7 991.9-48.3 2350.5-114.3 3757.5 266.1 103.1 27.6 208.6-33.1 236.3-135.8 27.8-102.7-33-208.5-135.7-236.3-1465.7-396.2-2859.3-328.4-3876.8-279-557.1 27.1-1188.5 57.8-1292.2-60.6-233.5-266.9-576.9-425.7-911.4-425.7M22986.2 10140.8c-59 0-117.3 27-155.1 78.1-1155.8 1561.9-1040.7 2870.3 424.5 4827.5 1486.4 1985.7 1450.8 4975.9 857.9 6283.6-536.9 1184.4-1472.3 835-1511.8 819.5-98.8-38.6-210.6 9.6-249.7 108.2-39.1 98.5 8.2 210 106.5 249.6 13.1 5.3 1313.9 508.8 2006.1-1018.1 345-761.1 488-1915.6 382.6-3088.4-87.1-970.1-380.5-2379.5-1283.1-3585.3-1545.1-2064.1-1340.8-3127.3-423.2-4367.3 63.3-85.6 45.3-206.3-40.2-269.5-34.5-25.6-74.7-37.9-114.5-37.9"
          transform="matrix(.13333 0 0 -.13333 0 5333.333)"/>
    <path style="fill:#000070;fill-opacity:1;fill-rule:nonzero;stroke:none"
          d="M22005.1 9283.3c-264.7 0-536.4 1.1-756.2 4.1-214.4 3-924.1 44.6-1055.8 454.2-46.1 143.4-29.6 367 310.9 618.5 443.1 327.2 354.8 777.9 336.2 853.5-41.9 93.8-79.7 192.8-112.4 294.7-296 922.2-120.9 1957.9 468.3 2770.5 1014.3 1398.9 1731.1 3339.9 1738.2 3359.4 36.7 99.9 147.4 151.2 247.2 114.7 100-36.7 151.3-147.3 114.7-247.2-29.8-81.4-741.7-2010-1788.1-3453.2-517.5-713.5-672-1620.6-413.4-2426.4 29.9-93 64.5-183.1 103-267.7 3.4-7.6 6.4-15.5 8.9-23.6 9.5-31.2 224.3-769.3-473.7-1284.8-146.8-108.4-173.7-177.9-172.9-190.5 12.5-48.8 244.9-180.5 694.3-186.7 651.1-9.1 1764.8-.1 1776 0h1.6c105.7 0 191.8-85.2 192.7-191.1.9-106.4-84.7-193.4-191.1-194.3-7.5-.1-503.9-4.1-1028.4-4.1"
          transform="matrix(.13333 0 0 -.13333 0 5333.333)"/>
    <path style="fill:#fff;fill-opacity:1;fill-rule:nonzero;stroke:none"
          d="M27642.3 10747.6c0-160.8-28.1-317.7-81.5-469.1-1073.6 1.1-1932-376.6-2605.4-1078.6-291.8-303.4-712.4-460.3-1128.1-398.1-447.6 66.6-674.5 366.7-784.6 789-77.6 297.9-40.2 615 95.8 891.4 584.2 1185.4 1945.2 1816.9 3647.1 1702.4 536.8-395.3 856.7-894.7 856.7-1437"
          transform="matrix(.13333 0 0 -.13333 0 5333.333)"/>
    <path style="fill:#000070;fill-opacity:1;fill-rule:nonzero;stroke:none"
          d="M26388.8 12004.4c-305.8 0-600.6-26.1-880.1-78.9-1026.6-193.9-1806.9-736.8-2197.4-1528.7-117.9-239.2-147-508.1-82-757.3 103.8-398.3 297-598 626.3-647.2 347-52 705.9 75.6 960.5 340.9 1113.7 1160.8 2682.5 1433.2 4663.1 810 1367.3-323.8 2559.9-334.1 3544.7-30.6 840.4 259.1 1480.7 738.7 1851.4 1387 526.6 921.2 426.8 2031.5-235.9 2924.3-253.4-2313.5-1388.6-3483.9-3376.8-3484-32.9 0-65.8.3-99.3 1-668.1 12.8-1333 159.9-1976.1 437-957.8 412.8-1923.3 626.5-2798.4 626.5m-2379.9-3408.9c-70.1 0-140.4 5.1-210.3 15.6-483 72.3-800 385.5-942.3 931.1-88.3 338.7-49.5 702.8 109.3 1025 445.4 903.2 1323 1520 2471.5 1737 1170.8 221.1 2520.5 23.3 3902.7-572.4 596.9-257.2 1213-393.7 1831-405.6 1890.8-34.9 2906.7 1049.2 3103 3318.5 271.1 3910.4-781.2 6648.5-3043.3 7915-2607.2 1459.9-5936.7 579.4-7468.2-512-86.5-61.8-206.9-41.7-268.7 45-61.8 86.7-41.6 207 45.1 268.8 1910.6 1361.8 5380.6 1934 7880.1 534.5 1635-915.4 3505.1-3031.8 3260.8-7920.3 992.3-1058.8 1201.4-2493.5 530.2-3667.3-420.1-734.9-1136.7-1275.7-2072.4-1564.1-1053-324.5-2316-315.9-3754 25.5-4.6 1.1-9.1 2.4-13.5 3.7-1858.1 586.3-3256.7 355-4275.6-707.1-290.4-302.5-684.6-470.9-1085.4-470.9"
          transform="matrix(.13333 0 0 -.13333 0 5333.333)"/>
    <path style="fill:#000070;fill-opacity:1;fill-rule:nonzero;stroke:none"
          d="M34982.8 10106.2c-337.2 0-677.5 12.3-1002.4 43-106 9.9-183.8 103.9-173.8 209.9 10 105.9 103.9 184 209.9 173.8 937.4-88.2 2014.7-18.6 2753.2 55.4 160.2 16 203.2 146.2 212.5 185.7 9.5 39.8 29.5 176.3-107.4 263-604.6 382.8-1688.8 475.5-1699.7 476.4-106.1 8.7-185 101.7-176.4 207.8 8.7 106 101.5 184.1 207.7 176.4 48.2-4 1189.2-101 1874.5-535 230.7-146 339.2-411.9 276.4-677.4-62.7-264.7-278.2-453.3-549.2-480.4-502-50.3-1157.7-98.6-1825.3-98.6M29799.9 18026.8c-139.8-73.5-283-164.6-412-262.4-65.1-49.3-129.2-99.4-189-154.4-61.7-52.4-120.1-108.6-176.5-166.2-225.3-231-411.7-494.1-559.1-779.8-72.2-143.8-133.7-293.2-188.8-446l-37-116.3-18.9-58.1-15.7-59.2-32.8-118.5-27.4-120.2c-71.8-321.8-110.2-654.5-137.3-994.3-3.5-45.9-43.5-80.2-89.3-76.6-38.7 2.9-69.2 32.2-75.7 68.7-60.1 345.7-67.9 702.7-24.3 1057.7 18.5 178.1 58.4 354.3 106.1 528.5 52.2 173.3 117 343.7 197.9 507.2 164.1 325.4 389.2 624.8 669.7 858.8 70.3 58.1 142.3 113.8 217.4 164.9 75.2 51 154.2 96 233.5 139.4 163 81.8 326.2 150.8 512.6 185.3 45 8.3 88.2-21.5 96.5-66.4 6.8-36.6-11.6-71.9-42.8-88.4l-7.1-3.7M26416.5 14131.8c-110.4-99.8-220.9-204.6-312.6-310.6-92.2-106.5-167-217.9-209.8-329.4-44.1-112-51.4-221.2-38.7-343.6 16.5-122.9 61.7-254.9 113.1-404.6l.9-2.6c15.6-45.3-8.6-94.7-53.9-110.3-26.2-9-54.2-4.5-75.8 9.5-144.6 94.5-260.2 239.4-326.7 419.9-30.7 91.2-45.3 190.8-41.3 290.9 4.4 100.3 30.7 198.6 69.4 287.4 78.6 178.8 205.6 317.5 344.1 422.1 69.7 52.6 143.1 97.4 220 133.8 77.2 37.2 153.6 66.9 240.9 87 45.5 10.4 90.7-18 101.1-63.4 7.1-30.8-3.7-61.5-25.5-81.3l-5.2-4.8M16301.2 18945.4c96.9 16.1 186.1 21.3 270.5 29.3 84.1 7.6 162.8 14.8 233.1 26.9 70.4 12.3 131.7 27.8 184.2 46.7 51.8 20.7 95.6 43.9 137.8 77.8 82.8 67.8 160.1 186.8 224.3 333 65.9 145.7 117 313 184.2 486.8l1.2 3.1c22.9 59.3 89.6 88.9 148.9 65.9 35.6-13.7 60.7-43.9 69.9-78.2 25-95.3 41.2-192.3 46.3-291.6 5.9-99.4 3.4-200.7-12.2-304.3-15.2-103.5-42.3-209.5-88.9-314.9-46.3-105-113.7-210.3-206.3-299.9-93-88.9-210-159.5-331.2-197.5-121.2-37.8-242.9-46.5-354.9-35.7-112.4 10.3-215.9 39.1-311.1 79.9-95.1 41.5-182.9 92.6-260.6 162.2-49.8 44.7-54 121.3-9.4 171.2 19.1 21.3 44.1 34.3 70.3 38.7l3.9.6M13507.2 17189.9c63.1-53.7 116.1-115.7 156.8-189.5 22.8-34.9 38-76.3 53.3-117.6 17.1-40.2 24.7-87.1 32.6-133.9 4.2-23.3 6.7-47 5.9-72.9.2-25.4-.4-51-2.2-76.5-4.4-51.3-17.7-106.1-34.5-157.7-22.8-50.7-43.5-104.7-78.8-147.7-16.2-22.6-33.7-44.5-51.4-65.6-19-18.5-38.4-36.7-58.2-54.5-38.9-38.7-82.1-60.1-124-87.5-21.1-14.4-42.4-21.6-63.7-31.3l-63.9-26.9c-42.3-14.5-84.1-23.9-125.9-34.9-41.6-7.3-81.8-12.7-122.8-16.7-161.3-10.8-313.9 8.7-459.7 63.8-61.8 23.4-92.9 92.4-69.6 154.2 10.6 28.1 30.7 49.9 55.2 63.1l5.2 2.8c130 69.7 253.2 116.4 361.3 167.9 107.8 50.1 197.3 104.6 241.2 152.1 5.5 5.8 11.3 11.2 17.4 16.3 3.6 6.1 6.5 12.1 11.2 17 11.3 9.1 12.3 22.6 22.8 32.2 3.9 5.6 5.4 13.3 9.2 19.7 3.1 7.2 10.1 11.9 11.2 21.7 2.9 18.3 16.2 33 17.9 56.9 4.9 22.1 13.1 44.6 15.1 72.2 3.4 26.7 10.4 54.1 11.5 85.1 1.5 30.4 9.3 62 10.2 95.8 3.2 34 6.1 68.7 13.8 106.8l3.3 16.5c13.4 66.3 78 109.3 144.4 95.9 20.9-4.2 40-14 55.2-26.8M15818.9 16894.9c117.4-78.3 95.5-317.4-49-534-144.4-216.6-356.6-328.8-474-250.5-117.4 78.2-20.1 267 124.3 483.6 144.5 216.7 281.3 379.1 398.7 300.9M15401.5 15297.9c101.7-18.7 203.4-19.2 294.4 1.2 91 19.8 169.5 61 225.1 117.6 56.9 55.9 91.2 128.4 111.6 211.5 20.7 83.4 25.3 176.4 30.2 274.8l.4 7.6c4.8 96.7 87.1 171.2 183.9 166.4 9.3-.5 19.4-1.9 28.3-3.8 125.7-27.2 253.7-36.4 373.9-19.2 119.8 17.6 230.3 60.6 314.8 132.6 85.9 70.4 146 173.4 175.4 298.2 29.4 124.9 28.3 264.8 19.7 409.8l-.4 5.4c-2.7 45.8 32.3 85.2 78.1 87.9 36.9 2.2 69.6-20.1 82.4-52.8 57.9-148.7 97.2-312 87.4-487.4-5.4-43.7-7.8-88.2-18.1-132.1-13.2-43.4-23-88.5-41.2-131.2-37.2-85.2-88.1-167.4-155-235.3l-51.6-49.7c-17.5-16.3-37.7-28.4-56.7-42.6-19.4-13.4-38.5-27.8-58.7-39.9l-62.3-31.9c-84-41-172.9-66.2-262.1-80.3-178.5-27.5-358.3-7.5-521.4 52.4l212.7 170.2c16.6-126.8 11.5-262.1-30.5-396.3-40.8-133.7-128.3-263.7-247.7-349.9-119.4-86.8-262-126.1-395.2-127.2-134-1.1-261 32.4-372.2 88.2-41.1 20.6-57.7 70.6-37 111.7 16.9 33.9 53.9 51.1 89.4 44.6l2.4-.5"
          transform="matrix(.13333 0 0 -.13333 0 5333.333)"/>
    <path style="fill:#9696b2;fill-opacity:1;fill-rule:nonzero;stroke:none"
          d="M18511.2 22124.3c-330.5 0-801.5 91.5-1357.5 158.5-1058.5 127.6-2024.2 118.2-1964.5 613.1 50.3 417.6 703.1 694.8 1541.4 694.8 155.5 0 317.5-9.5 483.1-29.5 1058.5-127.5 1868.2-632.2 1808.5-1127.2-28.3-234.9-212.3-309.7-511-309.7"
          transform="matrix(.13333 0 0 -.13333 0 5333.333)"/>
    <path style="fill:#b2b2d4;fill-opacity:1;fill-rule:nonzero;stroke:none"
          d="M21747.7 9860.2c-183.2 0-371.2 6-551.1 21.5-205.5 18-388.2 56.8-535.9 110.1 20 17.8 43.9 37.3 72.2 58.2 698 515.5 483.2 1253.6 473.7 1284.8-2.5 8.1-5.5 16-8.9 23.6-38.5 84.6-73.1 174.7-103 267.7-190.6 594-156.7 1243.1 81.5 1829.1 97.7-235.6 290.7-548.6 626.8-548.6 103.2 0 220.1 29.6 351.7 99.9-262-972-30.4-1832.4 676.4-2787.6 3.2-4.3 6.6-8.5 10.1-12.5-20-96-30.5-193.4-31.2-290.7-201.8-20.2-617.7-55.5-1062.3-55.5"
          transform="matrix(.13333 0 0 -.13333 0 5333.333)"/>
    <path style="fill:#225dd4;fill-opacity:1;fill-rule:nonzero;stroke:none"
          d="M22959.2 10706.2c-614.9 923.7-780.1 1793.3-46.9 3118.9 71.7-57.3 137.8-114.9 174.6-178.2 112.3-194.9 49.5-583.1 244.4-696 34.5-19.9 72.7-28.1 113.6-28.1 183.3 0 420.2 164.1 611.6 164.1 191.3 0 428.3-164.1 611.5-164.1 40.9 0 79.1 8.1 113.6 28.1 177.6 102.9 141.2 434.4 218.4 639.9 178.8 19.1 379 71.1 602.4 164.5-22.7-36.9-43.3-75.8-61.3-116.9-38.7-88.8-65-187.1-69.4-287.4-4-100.1 10.6-199.7 41.3-290.9 66.5-180.5 182.1-325.4 326.7-419.9 8.4-5.4 17.7-9.4 27.5-11.8-874.9-114-1618.5-500.4-2225.2-1170.6-220.4-198.1-408.3-424.7-559.9-677.1l-275.6 258.9c56.2-84.8 115.6-170.2 179.5-256.1-10-25.4-18.9-51.3-26.8-77.3m1097.3 3005.1c-273.7 0-495.6 221.9-495.6 495.5 0 112.9 37.8 217.1 101.4 300.4 106.5-271.8 285.1-577.1 579.6-760-57.2-23.2-119.9-35.9-185.4-35.9"
          transform="matrix(.13333 0 0 -.13333 0 5333.333)"/>
    <path style="fill:#1c4cc2;fill-opacity:1;fill-rule:nonzero;stroke:none"
          d="M24668 12922.8c-183.2 0-420.2 164.1-611.5 164.1-191.4 0-428.3-164.1-611.6-164.1-40.9 0-79.1 8.2-113.6 28.1-194.9 112.9-132.1 501.1-244.4 696-36.8 63.3-102.9 120.9-174.6 178.2 168.2 304 383.7 632.2 651.8 990.4.1 0 .1 0 .1.1 22.5-89.8 54.2-196.3 98.1-308.4-63.6-83.3-101.4-187.5-101.4-300.4 0-273.6 221.9-495.5 495.6-495.5 65.5 0 128.2 12.7 185.4 35.9 162.9-101.1 361.2-164.9 602.3-164.9 50.1 0 101.9 2.8 155.8 8.5-77.2-205.5-40.8-537-218.4-639.9-34.5-20-72.7-28.1-113.6-28.1"
          transform="matrix(.13333 0 0 -.13333 0 5333.333)"/>
    <path style="fill:#000070;fill-opacity:1;fill-rule:nonzero;stroke:none"
          d="M22841.2 10206.4c-3.5 4-6.9 8.2-10.1 12.5-706.8 955.2-938.4 1815.6-676.4 2787.6 13 7 26.2 14.4 39.5 22.2 68.3 39.1 139.9 89.7 215.9 152.5 22.6 18.7 45.7 38.5 69.3 59.5 0 0 721.3 1329.6 1034.1 1834.5l.5.6s11.5-105.4 50.2-260.2c0-.1 0-.1-.1-.1-268.1-358.2-483.6-686.4-651.8-990.4-733.2-1325.6-568-2195.2 46.9-3118.9-21.9-72.4-36-146.2-44.5-218.3l-108.2 101.7c33.1-50 67.4-100.3 103.1-150.7-29.2-76-52-153.8-68.4-232.5M20660.7 9991.8c-101.3 36.5-186.2 79.8-250.6 127.9 35 27.8 76.4 55.5 125.8 82.8 584.7 323.8 496.6 1032.9 496.6 1032.9-9.1 23.5-17.1 46.8-25.7 70.2 46.5 210.7 25.7 379.8 25.7 379.8-132 339.9-212.8 675.3-238.7 1006.1-1.2-14.1-2.2-28.2-3.1-42.2 21.3 331 101.7 657.1 248.4 977.3l54 84.8s24.2-114 83.1-256.2c-238.2-586-272.1-1235.1-81.5-1829.1 29.9-93 64.5-183.1 103-267.7 3.4-7.6 6.4-15.5 8.9-23.6 9.5-31.2 224.3-769.3-473.7-1284.8-28.3-20.9-52.2-40.4-72.2-58.2"
          transform="matrix(.13333 0 0 -.13333 0 5333.333)"/>
    <path style="fill:#000070;fill-opacity:1;fill-rule:nonzero;stroke:none"
          d="M22810 9915.7c.7 97.3 11.2 194.7 31.2 290.7 16.4 78.7 39.2 156.5 68.4 232.5.1-.2.3-.4.4-.6-12.7-148.5-3.6-285.1 7.7-379.4-6-45.3-9.8-89.8-11.8-133-21.8-2.5-54.3-6-95.9-10.2m305.4 833.7-33.3 31.3c151.6 252.4 339.5 479 559.9 677.1-188.8-208.5-364.5-444.6-526.6-708.4"
          transform="matrix(.13333 0 0 -.13333 0 5333.333)"/>
    <path style="fill:#225dd4;fill-opacity:1;fill-rule:nonzero;stroke:none"
          d="M31363.8 11592.1c-538.5 0-1142.1 100.7-1807.6 297-1163.1 513.3-2204.8 775.2-3120.5 775.2-173.9 0-343.5-9.5-508.2-28.5 37.4 19.6 56 64.1 41.9 105.2l-.9 2.6c-51.4 149.7-96.6 281.7-113.1 404.6-12.7 122.4-5.4 231.6 38.7 343.6 42.8 111.5 117.6 222.9 209.8 329.4 64.4 74.5 138.1 148.3 214.5 220.3 388.9 130.2 1067.7 464.8 1470.2 1277 1.7-193.6 19-386 51.8-575 6.5-36.5 37-65.8 75.7-68.7 2.1-.2 4.3-.3 6.4-.3 1.7 0 3.4.1 5 .2-12-51.9-27.6-99.6-50.5-139.3-109.6-188.9-480.1-325.4-480.1-559.5 0-234 370.5-371.1 480.1-559.9 112.3-194.9 49.6-583.1 244.5-695.9 34.4-20 72.6-28.2 113.5-28.2 183.3 0 420.3 164.2 611.6 164.2s428.3-164.2 611.6-164.2c40.9 0 79.1 8.2 113.5 28.2 194.9 112.8 132.2 501 244.5 695.9 99.6 171.7 415.2 300.7 471.5 498.7 395-182.3 825.3-300.3 1277.4-300.2 824 0 1720.6 391.8 2608.6 1499-1.1-282.3-9.7-573.8-26.2-874.8-22.8-310.3-58.6-600.7-107.4-871.1-18.5-60.1-37.9-118.9-58.2-176.3-15.3-32.1-30.9-63.7-46.9-94.8-44.7-12.2-88.4-19.9-129.9-19.9-191.3 0-428.3 164.1-611.6 164.1-40.9 0-79.1-8.1-113.6-28.1-194.9-112.3-132.1-501.1-244.4-696-109.6-188.8-480.1-325.4-480.1-559.4 0-74.5 37.6-139.2 92.4-198.9-325.1-111.4-686.8-166.2-1084-166.2m-2517.2 1888.3c-273.6 0-495.5 221.9-495.5 495.5 0 273.7 221.9 495.6 495.5 495.6s495.5-221.9 495.5-495.6c0-273.6-221.9-495.5-495.5-495.5m-200.1 1656.5c-141.3 48.6-288.5 122.5-411.5 122.5-40.9 0-79.1-8.1-113.5-28.1-31.8-18.3-56.7-43.9-76.6-74.8 22.9 192.3 52.4 381.7 93 567.5 109.7-141.4 283-352.3 508.6-587.1"
          transform="matrix(.13333 0 0 -.13333 0 5333.333)"/>
    <path style="fill:#718cd4;fill-opacity:1;fill-rule:nonzero;stroke:none"
          d="M34040.1 13367.6c48.8 270.4 84.6 560.8 107.4 871.1 16.5 301 25.1 592.5 26.2 874.8 44.3 55.3 88.7 112.5 133 171.4-6.9-209.7-17.9-423.2-32.9-640.2-41.4-478.1-119.1-903.6-233.7-1277.1"
          transform="matrix(.13333 0 0 -.13333 0 5333.333)"/>
    <path style="fill:#1c4cc2;fill-opacity:1;fill-rule:nonzero;stroke:none"
          d="M32447.8 11758.3c-54.8 59.7-92.4 124.4-92.4 198.9 0 234 370.5 370.6 480.1 559.4 112.3 194.9 49.5 583.7 244.4 696 34.5 20 72.7 28.1 113.6 28.1 183.3 0 420.3-164.1 611.6-164.1 41.5 0 85.2 7.7 129.9 19.9-34.3-67.1-70.1-131.8-107.4-194.3-144.8-242.8-311.6-450.4-501-624.4-161.9-149.2-339.7-273.1-533.5-372.7-110.1-56.8-225.1-105.7-345.3-146.8M29458.2 12691.9c-183.3 0-420.3 164.2-611.6 164.2s-428.3-164.2-611.6-164.2c-40.9 0-79.1 8.2-113.5 28.2-194.9 112.8-132.2 501-244.5 695.9-109.6 188.8-480.1 325.9-480.1 559.9 0 234.1 370.5 370.6 480.1 559.5 22.9 39.7 38.5 87.4 50.5 139.3 40.9 2.4 74.7 34.7 77.9 76.7 10.9 136.2 23.6 271.3 39.5 405.1 19.9 30.9 44.8 56.5 76.6 74.8 34.4 20 72.6 28.1 113.5 28.1 123 0 270.2-73.9 411.5-122.5 402.5-418.8 971.2-913.1 1641.2-1222.2-56.3-198-371.9-327-471.5-498.7-112.3-194.9-49.6-583.1-244.5-695.9-34.4-20-72.6-28.2-113.5-28.2m-611.6 1779.6c-273.6 0-495.5-221.9-495.5-495.6 0-273.6 221.9-495.5 495.5-495.5s495.5 221.9 495.5 495.5c0 273.7-221.9 495.6-495.5 495.6"
          transform="matrix(.13333 0 0 -.13333 0 5333.333)"/>
    <path style="fill:#000070;fill-opacity:1;fill-rule:nonzero;stroke:none"
          d="M33981.9 13191.3c20.3 57.4 39.7 116.2 58.2 176.3 114.6 373.5 192.3 799 233.7 1277.1 15 217 26 430.5 32.9 640.2 49.8 66.2 99.4 134.6 149.2 205.5 11.5 16.5 23.2 32.9 34.7 49.3-2.8-65.1-5.2-129.6-8.9-195.6-49-664-157.4-1236.1-323.7-1718.4-52.7-153.9-111.5-298.6-176.1-434.4M27922.5 14674.5c-2.1 0-4.3.1-6.4.3-38.7 2.9-69.2 32.2-75.7 68.7-32.8 189-50.1 381.4-51.8 575 85.9 173.2 159.1 368.1 214.3 587.6 0 0 47-68.6 135-182.1-40.6-185.8-70.1-375.2-93-567.5-15.9-133.8-28.6-268.9-39.5-405.1-3.2-42-37-74.3-77.9-76.7-1.6-.1-3.3-.2-5-.2M25867.2 12628.4c-9.8 2.4-19.1 6.4-27.5 11.8-144.6 94.5-260.2 239.4-326.7 419.9-30.7 91.2-45.3 190.8-41.3 290.9 4.4 100.3 30.7 198.6 69.4 287.4 18 41.1 38.6 80 61.3 116.9 131.3 54.9 270.5 124.1 418.5 209.4 0 0 117.8 16.6 297.5 76.8-76.4-72-150.1-145.8-214.5-220.3-92.2-106.5-167-217.9-209.8-329.4-44.1-112-51.4-221.2-38.7-343.6 16.5-122.9 61.7-254.9 113.1-404.6l.9-2.6c14.1-41.1-4.5-85.6-41.9-105.2-20.2-2.3-40.2-4.7-60.3-7.4M22961.7 10263.8c6.7 21.8 14.1 43.5 22.4 65-8.2-21.5-15.6-43.2-22.4-65m22.4 65c.6 1.6 1.3 3.2 1.9 4.7-.6-1.5-1.3-3.1-1.9-4.7m1.9 4.7c-26 35-51.3 70-76 104.8 0 .2 0 .3.1.5 24.7-35 49.7-70 75.9-105.3M20785.4 12522.2c.8 42.4 2.5 84.8 5.3 127.1-2.7-42.3-4.5-84.6-5.3-127.1M34490.6 15539.7v.1c4.4 6.2 8.9 12.5 13.2 18.7-4.3-6.3-8.7-12.5-13.2-18.8m13.2 18.8c.5.7 1.1 1.5 1.6 2.3-.5-.8-1.1-1.6-1.6-2.3"
          transform="matrix(.13333 0 0 -.13333 0 5333.333)"/>
    <path style="fill:#5c5c95;fill-opacity:1;fill-rule:nonzero;stroke:none"
          d="M31452.7 9892.4c-608.2 0-1267.7 83.6-1973.5 250.8-10.2 3.2-20.3 6.4-30.5 9.5 2137.2 35.5 2917.8 601.8 3202.6 1028.6 1134.7 451.8 1801.2 1536.3 1988.1 3242.6 593-798.9 735.3-1771.8 381.4-2627.6-5.6-10.4-10.2-21.3-13.8-32.8-38.5-89.4-82.3-177.4-131.7-263.9-226.2-395.5-552.6-728.2-963.7-986.4-10-5.1-19.6-11-28.6-17.7-255.6-157-543.2-285.5-859.1-382.9-476.4-146.8-1001.3-220.2-1571.2-220.2"
          transform="matrix(.13333 0 0 -.13333 0 5333.333)"/>
    <path style="fill:#000070;fill-opacity:1;fill-rule:nonzero;stroke:none"
          d="M31451.8 9701.4c-605.7 0-1280.3 79.5-2023.9 256.1-4.3 1.3-8.6 2.7-12.9 4-40.1 36.3-84.7 70.9-134.1 104.5-43.5 29.3-87.1 57.6-131 85.2 28.2-.2 56.1-.2 84-.2 73 0 144.7.6 214.8 1.7 10.2-3.1 20.3-6.3 30.5-9.5 705.8-167.2 1365.3-250.8 1973.5-250.8 569.9 0 1094.8 73.4 1571.2 220.2 315.9 97.4 603.5 225.9 859.1 382.9-42-31.5-71.1-80-76.4-136.4-3.9-41.8 5.8-81.8 25.5-115.5-614.4-337.4-1408.4-542.2-2380.3-542.2m2459.8 811.8c411.1 258.2 737.5 590.9 963.7 986.4 49.4 86.5 93.2 174.5 131.7 263.9-4.3-13.4-7.1-27.6-8.3-42.3-6.8-83 40.1-158.1 111.7-190.9-192-380.6-478.8-728.4-859.4-1016.1-78.9 5.2-157.2 11.4-234.5 18.7-6.3.6-12.5.9-18.7.9-30.8 0-60.1-7.4-86.2-20.6m-1260.3 668.1c67.9 101.9 107.6 195.8 130.8 272.7 975.1 488.4 1542.2 1538.9 1683.7 3174.1 6 89.8 11.5 178.4 15.9 266l27-18.2c834.4-869 1082.4-2000.3 752.9-2983.5-30.7 3.1-49.8 4.8-55.2 5.2-4.9.3-9.7.5-14.4.5-73.2 0-138.3-40.5-171.2-101.8 353.9 855.8 211.6 1828.7-381.4 2627.6-186.9-1706.3-853.4-2790.8-1988.1-3242.6"
          transform="matrix(.13333 0 0 -.13333 0 5333.333)"/>
    <path style="fill:#000070;fill-opacity:1;fill-rule:nonzero;stroke:none"
          d="M33832.1 10243.6c-19.7 33.7-29.4 73.7-25.5 115.5 5.3 56.4 34.4 104.9 76.4 136.4 9 6.7 18.6 12.6 28.6 17.7 26.1 13.2 55.4 20.6 86.2 20.6 6.2 0 12.4-.3 18.7-.9 77.3-7.3 155.6-13.5 234.5-18.7-128.9-97.5-268.4-188-418.9-270.6m1278.3 1286.7c-71.6 32.8-118.5 107.9-111.7 190.9 1.2 14.7 4 28.9 8.3 42.3 3.6 11.5 8.2 22.4 13.8 32.8 32.9 61.3 98 101.8 171.2 101.8 4.7 0 9.5-.2 14.4-.5 5.4-.4 24.5-2.1 55.2-5.2a2722.7 2722.7 0 0 0-151.2-362.1M7676.88 17930.6h.54l-.54-.6z"
          transform="matrix(.13333 0 0 -.13333 0 5333.333)"/>
    <path style="fill:#5c5c95;fill-opacity:1;fill-rule:nonzero;stroke:none"
          d="M28884.2 10306.4c-446.9 103.7-870.3 157.7-1270.4 162 18.8 91.5 28.5 184.7 28.5 279.2v5.7c424.2-81.5 840.4-229.8 1241.9-446.9"
          transform="matrix(.13333 0 0 -.13333 0 5333.333)"/>
    <path style="fill:#b2b2d4;fill-opacity:1;fill-rule:nonzero;stroke:none"
          d="M24009.3 8980.9c-51.3 0-102.6 3.7-153.7 11.4-329.3 49.2-522.5 248.9-626.3 647.2-65 249.2-35.9 518.1 82 757.3 10.5 21.1 21.1 42.1 32.1 62.8 63.4-198.6 211.5-393.8 548.7-393.8 195.2 0 453.9 65.5 796.3 233.6 711 349.2 1440.5 529.3 2158.4 529.3 267.3 0 532.9-24.9 795.5-75.4v-5.7c0-94.5-9.7-187.7-28.5-279.2-17.7.2-35.4.3-53 .3-1100 0-2019-379.2-2744.7-1135.5-217.1-226.3-510.1-352.3-806.8-352.3"
          transform="matrix(.13333 0 0 -.13333 0 5333.333)"/>
    <path style="fill:#000070;fill-opacity:1;fill-rule:nonzero;stroke:none"
          d="M24008.6 8788.3c-60.3 0-120.8 4.4-181.3 13.5-447.6 66.6-674.5 366.7-784.6 789-77.6 297.9-40.2 615 95.8 891.4 47.9 97.4 101.3 191.6 159.7 281.4.7-79.8 9.6-192.4 45.2-304-11-20.7-21.6-41.7-32.1-62.8-117.9-239.2-147-508.1-82-757.3 103.8-398.3 297-598 626.3-647.2 51.1-7.7 102.4-11.4 153.7-11.4 296.7 0 589.7 126 806.8 352.3 725.7 756.3 1644.7 1135.5 2744.7 1135.5 17.6 0 35.3-.1 53-.3 400.1-4.3 823.5-58.3 1270.4-162 89.3-48.3 177.9-100 265.7-155.2-164.5 1-336.5 5-516 12.2 250.4-49.9 510.5-117.3 781.1-201.9.1 0 .2-.1.2-.2-270.9 84.8-530.7 152-781.3 202.1-379.3 77.1-736.7 114.5-1073.1 115.1-101.8 0-202-3.3-300.6-9.9h-.5c-95.8-6.6-190-16.5-282.5-29.8-806.6-112.8-1475-469.1-2021.8-1038.9-249.3-259.3-592.8-411.5-946.8-411.6"
          transform="matrix(.13333 0 0 -.13333 0 5333.333)"/>
    <path style="fill:#000070;fill-opacity:1;fill-rule:nonzero;stroke:none"
          d="M29415 9961.5c-270.6 84.6-530.7 152-781.1 201.9 179.5-7.2 351.5-11.2 516-12.2 43.9-27.6 87.5-55.9 131-85.2 49.4-33.6 94-68.2 134.1-104.5"
          transform="matrix(.13333 0 0 -.13333 0 5333.333)"/>
    <path style="fill:#000072;fill-opacity:1;fill-rule:nonzero;stroke:none"
          d="M10720.3 24319.6H8926.93c-45.82 0-78.98 10.2-99.42 30.7-20.5 20.5-30.73 53.6-30.73 99.4v484.5c0 45.8 7.23 86.2 21.69 121.1 14.47 35 37.33 69.3 68.69 103.1l878.6 1066.6h-773.74c-45.81 0-78.98 10.3-99.42 30.8-20.52 20.4-30.75 53.6-30.75 99.4v437.5c0 45.7 10.23 78.9 30.75 99.4 20.44 20.5 53.61 30.8 99.42 30.8h1663.18c45.8 0 78.9-10.3 99.4-30.8s30.8-53.7 30.8-99.4v-538.8c0-48.2-7.3-89.8-21.7-124.7-14.5-35-37.4-69.3-68.7-103l-838.85-1016h864.15c45.7 0 78.9-10.3 99.4-30.8s30.8-53.6 30.8-99.4v-430.3c0-45.8-10.3-78.9-30.8-99.4s-53.7-30.7-99.4-30.7M7947.36 27678.1h-1400.1c-35.78 0-61.67 8-77.63 24-16 16-24 41.9-24 77.7v378.2c0 35.7 5.66 67.3 16.94 94.6 11.31 27.2 29.15 54.1 53.63 80.4l685.94 832.7h-604.06c-35.78 0-61.67 8-77.63 24-16.03 16-24.01 41.9-24.01 77.7v341.5c0 35.7 7.98 61.6 24.01 77.6 15.96 16 41.85 24 77.63 24h1298.46c35.74 0 61.63-8 77.63-24 15.96-16 23.99-41.9 23.99-77.6v-420.6c0-37.6-5.65-70.1-16.93-97.4-11.28-27.3-29.21-54.1-53.63-80.4l-654.89-793.2h674.65c35.72 0 61.6-8 77.63-24 15.96-16 23.99-41.9 23.99-77.6v-335.9c0-35.8-8.03-61.7-23.99-77.7-16.03-16-41.91-24-77.63-24M11601.5 30108h-1100.8c-28.1 0-48.5 6.3-61.1 18.9-12.5 12.5-18.8 32.9-18.8 61v297.4c0 28.1 4.4 52.9 13.3 74.4 8.9 21.4 22.9 42.5 42.2 63.2l539.3 654.8h-475c-28.1 0-48.5 6.2-61 18.8-12.6 12.6-18.9 32.9-18.9 61v268.6c0 28.1 6.3 48.4 18.9 61 12.5 12.6 32.9 18.9 61 18.9h1021c28.1 0 48.4-6.3 61-18.9 12.6-12.6 18.9-32.9 18.9-61v-330.7c0-29.6-4.5-55.1-13.3-76.6-8.9-21.4-23-42.5-42.2-63.2l-514.9-623.7h530.4c28.1 0 48.5-6.3 61.1-18.8 12.5-12.7 18.8-33 18.8-61.1v-264.1c0-28.1-6.3-48.5-18.8-61-12.6-12.6-33-18.9-61.1-18.9"
          transform="matrix(.13333 0 0 -.13333 0 5333.333)"/></svg>